<?xml version="1.0" encoding="utf-8"?>
<!-- Generator: Adobe Illustrator 23.0.2, SVG Export Plug-In . SVG Version: 6.00 Build 0)  -->
<svg version="1.1" id="Layer_1" xmlns="http://www.w3.org/2000/svg" xmlns:xlink="http://www.w3.org/1999/xlink" x="0px" y="0px"
	 viewBox="0 0 211.74 211.74" style="enable-background:new 0 0 211.74 211.74;" xml:space="preserve">
<style type="text/css">
	.st0{fill:url(#SVGID_1_);}
	.st1{fill:url(#SVGID_2_);}
	.st2{fill:url(#SVGID_3_);}
</style>
<g>
	<linearGradient id="SVGID_1_" gradientUnits="userSpaceOnUse" x1="-185.8532" y1="457.9138" x2="280.5136" y2="-104.8822">
		<stop  offset="0" style="stop-color:#FF001C"/>
		<stop  offset="0.2194" style="stop-color:#FF009D"/>
		<stop  offset="0.2677" style="stop-color:#F9049F"/>
		<stop  offset="0.3324" style="stop-color:#E80FA3"/>
		<stop  offset="0.4064" style="stop-color:#CC22AA"/>
		<stop  offset="0.4872" style="stop-color:#A53CB4"/>
		<stop  offset="0.5737" style="stop-color:#735DC0"/>
		<stop  offset="0.6634" style="stop-color:#3785CF"/>
		<stop  offset="0.7369" style="stop-color:#00AADD"/>
		<stop  offset="1" style="stop-color:#FFD400"/>
	</linearGradient>
	<path class="st0" d="M105.87,0C47.41,0,0,47.4,0,105.87c0,58.47,47.41,105.87,105.87,105.87c58.47,0,105.87-47.4,105.87-105.87
		C211.74,47.4,164.34,0,105.87,0z M73.11,158.99V52.75l92,53.12L73.11,158.99z"/>
	<linearGradient id="SVGID_2_" gradientUnits="userSpaceOnUse" x1="-191.3974" y1="453.328" x2="274.9778" y2="-109.4781">
		<stop  offset="0" style="stop-color:#FF001C"/>
		<stop  offset="0.2194" style="stop-color:#FF009D"/>
		<stop  offset="0.2677" style="stop-color:#F9049F"/>
		<stop  offset="0.3324" style="stop-color:#E80FA3"/>
		<stop  offset="0.4064" style="stop-color:#CC22AA"/>
		<stop  offset="0.4872" style="stop-color:#A53CB4"/>
		<stop  offset="0.5737" style="stop-color:#735DC0"/>
		<stop  offset="0.6634" style="stop-color:#3785CF"/>
		<stop  offset="0.7369" style="stop-color:#00AADD"/>
		<stop  offset="1" style="stop-color:#FFD400"/>
	</linearGradient>
	<polygon class="st1" points="69.75,56.11 69.75,162.35 161.76,109.23 160.52,108.52 73.11,158.99 73.11,58.05 	"/>
	<linearGradient id="SVGID_3_" gradientUnits="userSpaceOnUse" x1="-185.7487" y1="457.9981" x2="280.6172" y2="-104.7969">
		<stop  offset="0" style="stop-color:#FF001C"/>
		<stop  offset="0.2194" style="stop-color:#FF009D"/>
		<stop  offset="0.2677" style="stop-color:#F9049F"/>
		<stop  offset="0.3324" style="stop-color:#E80FA3"/>
		<stop  offset="0.4064" style="stop-color:#CC22AA"/>
		<stop  offset="0.4872" style="stop-color:#A53CB4"/>
		<stop  offset="0.5737" style="stop-color:#735DC0"/>
		<stop  offset="0.6634" style="stop-color:#3785CF"/>
		<stop  offset="0.7369" style="stop-color:#00AADD"/>
		<stop  offset="1" style="stop-color:#FFD400"/>
	</linearGradient>
	<path class="st2" d="M105.87,0c-30.1,0-57.24,12.58-76.52,32.75C48.36,14.56,74.13,3.36,102.51,3.36
		c58.47,0,105.87,47.4,105.87,105.87c0,28.37-11.18,54.11-29.35,73.12c20.15-19.27,32.71-46.4,32.71-76.48
		C211.74,47.4,164.34,0,105.87,0z"/>
</g>
</svg>
