<?xml version="1.0" encoding="utf-8"?>
<!-- Generator: Adobe Illustrator 22.0.1, SVG Export Plug-In . SVG Version: 6.00 Build 0)  -->
<svg version="1.1" id="Camada_1" xmlns="http://www.w3.org/2000/svg" xmlns:xlink="http://www.w3.org/1999/xlink" x="0px" y="0px"
	 viewBox="0 0 18 18" style="enable-background:new 0 0 18 18;" xml:space="preserve">
<style type="text/css">
	.st0{fill:#F23855;}
</style>
<g>
	<path class="st0" d="M9,6.2c1.9,0,3.4,1.5,3.4,3.4c0,0.3,0.2,0.5,0.5,0.5s0.5-0.2,0.5-0.5c0-2.4-2-4.4-4.4-4.4s-4.4,2-4.4,4.4
		S6.6,14,9,14c1.5,0,3-0.8,3.8-2.2c0.1-0.2,0.1-0.5-0.2-0.7c-0.2-0.1-0.5-0.1-0.7,0.2c-0.6,1-1.7,1.7-2.9,1.7
		c-1.9,0-3.4-1.5-3.4-3.4S7.1,6.2,9,6.2z"/>
	<path class="st0" d="M17.4,9C17,4.9,13.7,1.6,9.7,1.3C7.2,1.1,4.8,2,3.1,3.7s-2.6,4.1-2.4,6.6C1,14.4,4.3,17.7,8.3,18
		c0.2,0,0.4,0,0.7,0c2.2,0,4.4-0.9,5.9-2.5c0.2-0.2,0.2-0.5,0-0.7s-0.5-0.2-0.7,0c-1.5,1.5-3.7,2.3-5.8,2.1
		c-3.6-0.3-6.5-3.2-6.8-6.8c-0.1-2,0.6-4.2,2.2-5.7c1.5-1.5,3.7-2.3,5.8-2.1c3.6,0.3,6.5,3.2,6.8,6.8c0,0.5,0,1,0,1.5
		c-0.1,0.5-0.4,1-0.8,1.2c-0.4,0.2-0.9,0.2-1.3,0c-0.2-0.1-0.5,0-0.7,0.2c-0.1,0.2,0,0.5,0.2,0.7c0.7,0.4,1.5,0.4,2.2,0
		s1.3-1.1,1.4-1.9C17.4,10.1,17.4,9.5,17.4,9z"/>
</g>
</svg>
