<?xml version="1.0" encoding="utf-8"?>
<!-- Generator: Adobe Illustrator 23.0.2, SVG Export Plug-In . SVG Version: 6.00 Build 0)  -->
<svg version="1.1" id="Capa_1" xmlns="http://www.w3.org/2000/svg" xmlns:xlink="http://www.w3.org/1999/xlink" x="0px" y="0px"
	 viewBox="0 0 469.3 469.3" style="enable-background:new 0 0 469.3 469.3;" xml:space="preserve">
<style type="text/css">
	.st0{fill:#FFFFFF;}
</style>
<g>
	<g>
		<g>
			<path class="st0" d="M53.3,106.7H416c29.4,0,53.3-23.9,53.3-53.3S445.4,0,416,0H53.3C23.9,0,0,23.9,0,53.3S23.9,106.7,53.3,106.7
				z"/>
			<path class="st0" d="M416,181.3H53.3c-29.4,0-53.3,24-53.3,53.4S23.9,288,53.3,288H416c29.4,0,53.3-23.9,53.3-53.3
				S445.4,181.3,416,181.3z"/>
			<path class="st0" d="M416,362.7H53.3C23.9,362.7,0,386.6,0,416s23.9,53.3,53.3,53.3H416c29.4,0,53.3-23.9,53.3-53.3
				S445.4,362.7,416,362.7z"/>
		</g>
	</g>
</g>
</svg>
