<?xml version="1.0" encoding="utf-8"?>
<!-- Generator: Adobe Illustrator 22.0.1, SVG Export Plug-In . SVG Version: 6.00 Build 0)  -->
<svg version="1.1" id="Camada_1" xmlns="http://www.w3.org/2000/svg" xmlns:xlink="http://www.w3.org/1999/xlink" x="0px" y="0px"
	 viewBox="0 0 18 18" style="enable-background:new 0 0 18 18;" xml:space="preserve">
<style type="text/css">
	.st0{fill:#F23855;}
</style>
<g>
	<path class="st0" d="M16.3,2.7H1.7C1.5,2.7,1.3,2.8,1.3,3v14.7c0,0.2,0.1,0.3,0.3,0.3h12.5c0.2,0,0.3-0.1,0.3-0.3
		c0-0.2-0.1-0.3-0.3-0.3H2V3.3h14v14.4c0,0.2,0.1,0.3,0.3,0.3c0.2,0,0.3-0.1,0.3-0.3V3C16.7,2.8,16.5,2.7,16.3,2.7z"/>
	<path class="st0" d="M4.8,5.9c-0.7,0-1.2,0.5-1.2,1.2s0.5,1.2,1.2,1.2S6,7.8,6,7.1S5.4,5.9,4.8,5.9z M4.8,7.7
		c-0.3,0-0.6-0.3-0.6-0.6s0.3-0.6,0.6-0.6s0.6,0.3,0.6,0.6S5.1,7.7,4.8,7.7z"/>
	<path class="st0" d="M14.2,6.8H6.9C6.7,6.8,6.6,7,6.6,7.1c0,0.2,0.1,0.3,0.3,0.3h7.3c0.2,0,0.3-0.1,0.3-0.3
		C14.5,7,14.3,6.8,14.2,6.8z"/>
	<path class="st0" d="M4.8,9.2c-0.2,0-0.3,0.1-0.3,0.3s0.1,0.3,0.3,0.3c0.3,0,0.6,0.3,0.6,0.6S5.1,11,4.8,11s-0.6-0.3-0.6-0.6
		c0-0.2-0.1-0.3-0.3-0.3s-0.3,0.1-0.3,0.3c0,0.7,0.5,1.2,1.2,1.2S6,11,6,10.3S5.4,9.2,4.8,9.2z"/>
	<path class="st0" d="M14.2,10H6.9c-0.2,0-0.3,0.1-0.3,0.3s0.1,0.3,0.3,0.3h7.3c0.2,0,0.3-0.1,0.3-0.3C14.5,10.2,14.3,10,14.2,10z"
		/>
	<path class="st0" d="M4.8,12.4c-0.7,0-1.2,0.5-1.2,1.2s0.5,1.2,1.2,1.2S6,14.2,6,13.6S5.4,12.4,4.8,12.4z M4.8,14.1
		c-0.3,0-0.6-0.3-0.6-0.6s0.3-0.6,0.6-0.6s0.6,0.3,0.6,0.6C5.3,13.9,5.1,14.1,4.8,14.1z"/>
	<path class="st0" d="M14.2,13.3H6.9c-0.2,0-0.3,0.1-0.3,0.3s0.1,0.3,0.3,0.3h7.3c0.2,0,0.3-0.1,0.3-0.3S14.3,13.3,14.2,13.3z"/>
</g>
</svg>
