<?xml version="1.0" encoding="utf-8"?>
<!-- Generator: Adobe Illustrator 22.0.1, SVG Export Plug-In . SVG Version: 6.00 Build 0)  -->
<svg version="1.1" id="Camada_1" xmlns="http://www.w3.org/2000/svg" xmlns:xlink="http://www.w3.org/1999/xlink" x="0px" y="0px"
	 viewBox="0 0 18 18" style="enable-background:new 0 0 18 18;" xml:space="preserve">
<style type="text/css">
	.st0{fill:#F23855;}
</style>
<g>
	<path class="st0" d="M7.2,13.2c-0.7-0.3-1.6,0-1.9,0.7c-0.4,0.7-0.1,1.6,0.6,1.9c0.2,0.1,0.4,0.1,0.6,0.1c0.5,0,1-0.3,1.3-0.8
		c0.2-0.3,0.2-0.7,0.1-1C7.8,13.7,7.5,13.4,7.2,13.2z M7.3,14.9c-0.2,0.4-0.7,0.6-1.2,0.4c-0.4-0.2-0.6-0.7-0.4-1.2
		c0.2-0.4,0.7-0.6,1.2-0.4c0.2,0.1,0.4,0.3,0.4,0.5C7.4,14.5,7.4,14.7,7.3,14.9L7.3,14.9z"/>
	<path class="st0" d="M3.4,8.7C3.1,8.5,2.7,8.5,2.3,8.6C1.9,8.7,1.6,9,1.5,9.3C1.3,9.6,1.3,10,1.4,10.4c0.1,0.4,0.4,0.7,0.7,0.8
		c0.2,0.1,0.4,0.2,0.6,0.2c0.1,0,0.3,0,0.4-0.1c0.4-0.1,0.7-0.4,0.8-0.7C4.1,10.3,4.1,9.9,4,9.5C4,9.2,3.7,8.9,3.4,8.7L3.4,8.7z
		 M3.5,10.4c-0.1,0.2-0.3,0.4-0.5,0.4c-0.2,0.1-0.4,0.1-0.7,0c-0.2-0.1-0.4-0.3-0.4-0.5C1.8,10,1.9,9.8,2,9.6s0.3-0.4,0.5-0.4
		c0.1,0,0.2,0,0.3,0c0.4,0,0.7,0.2,0.8,0.6C3.7,9.9,3.6,10.2,3.5,10.4z"/>
	<path class="st0" d="M17.6,9.2c-0.3-0.3-0.4-0.6-0.5-0.9C17,8,16.9,7.6,16.5,7.1c-0.5-0.5-0.8-0.5-1.2-0.6c0,0,0,0-0.1,0l1.6-0.8
		C17,5.6,17.1,5.5,17,5.3c-0.1-0.1-0.2-0.2-0.3-0.2l-2.4,0.8C14.1,5.6,14,5.4,14,5.1c-0.1-0.3-0.2-0.7-0.6-1.2
		c-0.3-0.3-0.6-0.4-0.8-0.5l1-1.9c0.1-0.1,0-0.3-0.1-0.4c-0.1-0.1-0.3,0-0.3,0.1l-1.3,1.9c-0.1-0.1-0.3-0.2-0.4-0.3
		c-0.3-0.3-0.4-0.6-0.5-0.9s-0.2-0.7-0.6-1.2c-0.1-0.1-0.3-0.1-0.4,0C9.9,0.8,9.9,1,10,1.1c0.3,0.3,0.4,0.6,0.5,0.9s0.2,0.7,0.6,1.2
		c0.2,0.2,0.3,0.3,0.5,0.4l-0.4,0.6C11,4.1,10.8,4,10.5,3.8C9.9,3.5,9.8,3.2,9.8,2.9C9.7,2.6,9.6,2.2,9.2,1.7
		c-0.1-0.1-0.3-0.1-0.4,0C8.7,1.8,8.7,2,8.8,2.1C9.1,2.4,9.2,2.7,9.3,3s0.2,0.7,0.6,1.2c0.3,0.3,0.5,0.4,0.7,0.5L8.3,7.9L5,9
		C4.7,8.5,4.3,8.1,3.9,7.8C3.3,7.5,2.6,7.5,2,7.7C1.4,7.9,0.9,8.3,0.6,8.9s-0.3,1.2-0.1,1.9c0.3,1,1.3,1.7,2.3,1.7
		c0.2,0,0.5,0,0.7-0.1c0.6-0.2,1.1-0.6,1.4-1.2c0.2-0.5,0.3-1,0.2-1.5c0.3,0,0.7,0.1,1,0.2c0.5,0.2,0.8,0.5,1,1c0,0,0,0,0,0.1
		c0.1,0.4,0.2,0.9,0.1,1.3c-1.1-0.4-2.4,0.1-2.9,1.2c-0.6,1.1-0.2,2.5,0.8,3.1l-0.5,1c-0.1,0.1,0,0.3,0.1,0.4h0.1
		C4.9,18,5,17.9,5,17.9l0.5-1c0.5,0,0.8,0,1,0c0.9,0,1.7-0.5,2.2-1.3c0.6-1.1,0.2-2.5-0.8-3.1l1.6-3.2l3.6-1.8
		c0.4,0.4,0.8,0.4,1.1,0.5s0.6,0.1,0.9,0.5c0.3,0.3,0.4,0.6,0.5,0.9c0.1,0.3,0.2,0.7,0.6,1.2c0.1,0.1,0.1,0.1,0.2,0.1s0.1,0,0.2-0.1
		s0.1-0.3,0-0.4c-0.3-0.3-0.4-0.6-0.5-0.9C16,9,15.9,8.6,15.5,8.1c-0.5-0.5-0.8-0.5-1.2-0.6c-0.2,0-0.4-0.1-0.7-0.2l0.9-0.4
		C14.8,6.9,15,7,15.2,7c0.3,0.1,0.6,0.1,0.9,0.5c0.3,0.3,0.4,0.6,0.5,0.9s0.2,0.7,0.6,1.2c0.1,0.1,0.1,0.1,0.2,0.1s0.1,0,0.2-0.1
		C17.7,9.5,17.7,9.3,17.6,9.2L17.6,9.2z M13,4.3c0.3,0.3,0.4,0.6,0.5,0.9s0.1,0.6,0.4,0.9L13,6.4c0-0.1,0-0.2-0.1-0.3
		c-0.1-0.3-0.2-0.7-0.6-1.2c-0.1-0.1-0.3-0.2-0.4-0.3l0.4-0.7C12.5,4,12.7,4,13,4.3z M11.7,5.1c0.1,0.1,0.2,0.1,0.3,0.2
		c0.3,0.3,0.4,0.6,0.5,0.9c0,0.1,0,0.2,0.1,0.3l-1.9,0.6C10.6,7.1,11.7,5.1,11.7,5.1z M11.1,4.9L11.1,4.9L9.9,7.4L9.2,7.6L11.1,4.9
		L11.1,4.9z M4.3,10.8c-0.2,0.4-0.6,0.7-1,0.8c-0.9,0.3-1.8-0.2-2.1-1.1C1,10.1,1,9.6,1.2,9.2s0.6-0.7,1-0.8
		c0.2-0.1,0.3-0.1,0.5-0.1c0.3,0,0.5,0.1,0.8,0.2c0.4,0.2,0.7,0.6,0.8,1C4.5,9.9,4.5,10.4,4.3,10.8z M13.1,6.9L7.2,9.8
		C6.9,9.5,6.5,9.3,6.1,9.2L13.1,6.9z M8.1,15.3c-0.4,0.8-1.4,1.2-2.3,0.7c-0.8-0.4-1.2-1.4-0.7-2.3c0.4-0.8,1.4-1.2,2.3-0.7
		C8.1,13.4,8.5,14.5,8.1,15.3L8.1,15.3z M7.8,11.4c0-0.2-0.1-0.5-0.1-0.7c0-0.1-0.1-0.3-0.2-0.4l1.2-0.6L7.8,11.4L7.8,11.4z"/>
</g>
</svg>
