<?xml version="1.0" encoding="utf-8"?>
<!-- Generator: Adobe Illustrator 22.0.1, SVG Export Plug-In . SVG Version: 6.00 Build 0)  -->
<svg version="1.1" id="Camada_1" xmlns="http://www.w3.org/2000/svg" xmlns:xlink="http://www.w3.org/1999/xlink" x="0px" y="0px"
	 viewBox="0 0 18 18" style="enable-background:new 0 0 18 18;" xml:space="preserve">
<style type="text/css">
	.st0{fill:#F23855;}
</style>
<path class="st0" d="M15.9,9.4c-0.2,0-0.4,0.2-0.4,0.4v7.4H11v-4.6c0-0.2-0.2-0.4-0.4-0.4H7.4c-0.2,0-0.4,0.2-0.4,0.4v3.7
	c0,0.2,0.2,0.4,0.4,0.4s0.4-0.2,0.4-0.4V13h2.4v4.2H2.5V7.1L9,1.9l6.6,5.3c0.2,0.1,0.4,0.1,0.6-0.1c0.1-0.2,0.1-0.4-0.1-0.6L9.3,1
	C9.1,0.9,8.9,0.9,8.7,1L1.9,6.5C1.8,6.6,1.7,6.7,1.7,6.9v10.7c0,0.2,0.2,0.4,0.4,0.4h13.7c0.2,0,0.4-0.2,0.4-0.4V9.8
	C16.3,9.6,16.1,9.4,15.9,9.4z"/>
</svg>
