<?xml version="1.0" encoding="utf-8"?>
<!-- Generator: Adobe Illustrator 23.0.2, SVG Export Plug-In . SVG Version: 6.00 Build 0)  -->
<svg version="1.1" id="Camada_1" xmlns="http://www.w3.org/2000/svg" xmlns:xlink="http://www.w3.org/1999/xlink" x="0px" y="0px"
	 viewBox="0 0 260 95" style="enable-background:new 0 0 260 95;" xml:space="preserve">
<style type="text/css">
	.st0{fill:#FFFFFF;}
</style>
<path class="st0" d="M100.5,33.4c0,0,6.1,21.7-18.2,34.2c0,0-12.9-16.9,8-25.3c0,0-26.8,8-19.8-13C78.3,5.8,100.5,33.4,100.5,33.4z"
	/>
<path class="st0" d="M101.2,27.9c0,0-0.6-24.3-15.9-14.7C85.3,13.2,96.9,10.8,101.2,27.9z"/>
<path class="st0" d="M103.7,27.9c0,0,0.6-24.3,15.9-14.7C119.6,13.2,108.1,10.8,103.7,27.9z"/>
<path class="st0" d="M104.4,33.4c0,0-6.1,21.7,18.2,34.2c0,0,12.9-16.9-8-25.3c0,0,26.8,8,19.8-13C126.6,5.8,104.4,33.4,104.4,33.4z
	"/>
<polygon class="st0" points="145.5,32.6 246.6,34.2 145.5,35.8 "/>
<polygon class="st0" points="13.4,34.2 59.8,32.6 59.8,35.8 "/>
<path class="st0" d="M24.8,66.3c0-0.9,0.6-1.6,1.5-1.6c0.9,0,1.5,0.7,1.5,1.6c0,0.9-0.6,1.6-1.5,1.6C25.4,67.9,24.8,67.2,24.8,66.3z
	"/>
<path class="st0" d="M35.7,50.6h2.2v8.2H38c0.5-0.7,0.9-1.3,1.3-1.8l5.2-6.4h2.7l-6.2,7.2l6.7,9.8h-2.6l-5.6-8.4l-1.6,1.9v6.5h-2.2
	L35.7,50.6L35.7,50.6z"/>
<path class="st0" d="M56.7,50.6v17h-2.2v-17H56.7z"/>
<path class="st0" d="M65,66.3c0-0.9,0.6-1.6,1.5-1.6c0.9,0,1.5,0.7,1.5,1.6c0,0.9-0.6,1.6-1.5,1.6C65.6,67.9,65,67.2,65,66.3z"/>
<path class="st0" d="M137.2,50.8c1-0.2,2.5-0.3,4-0.3c2.2,0,3.6,0.4,4.7,1.2c0.9,0.7,1.4,1.7,1.4,3c0,1.6-1.1,3.1-2.9,3.7v0
	c1.6,0.4,3.5,1.7,3.5,4.3c0,1.5-0.6,2.6-1.4,3.4c-1.2,1.1-3.1,1.6-5.9,1.6c-1.5,0-2.7-0.1-3.4-0.2L137.2,50.8L137.2,50.8z
	 M139.4,57.8h2c2.3,0,3.7-1.2,3.7-2.9c0-2-1.5-2.8-3.7-2.8c-1,0-1.6,0.1-1.9,0.2V57.8z M139.4,66c0.4,0.1,1.1,0.1,1.9,0.1
	c2.3,0,4.4-0.8,4.4-3.3c0-2.3-2-3.3-4.4-3.3h-1.8V66z"/>
<path class="st0" d="M164.8,59.7h-6.6v6.1h7.4v1.8H156v-17h9.2v1.8h-7v5.4h6.6L164.8,59.7L164.8,59.7z"/>
<path class="st0" d="M173.5,50.6h2.2v15.2h7.3v1.8h-9.5V50.6z"/>
<path class="st0" d="M199.3,59.7h-6.6v6.1h7.4v1.8h-9.6v-17h9.2v1.8h-7v5.4h6.6V59.7z"/>
<path class="st0" d="M206.8,66.3l9.5-13.8v-0.1h-8.6v-1.8h11.5v1.3l-9.4,13.8v0.1h9.5v1.8h-12.4L206.8,66.3L206.8,66.3z"/>
<path class="st0" d="M229.8,62.3l-1.8,5.4h-2.3l5.8-17h2.6l5.8,17h-2.4l-1.8-5.4H229.8z M235.4,60.6l-1.7-4.9
	c-0.4-1.1-0.6-2.1-0.9-3.1h-0.1c-0.3,1-0.5,2-0.9,3.1l-1.7,4.9L235.4,60.6L235.4,60.6z"/>
<path class="st0" d="M18.1,81c18.3-0.6,36.5-1,54.8-1.2c9.1-0.1,18.3-0.2,27.4-0.3l27.4-0.1l27.4,0.1c9.1,0.1,18.3,0.1,27.4,0.3
	c9.1,0.1,18.3,0.3,27.4,0.5c9.1,0.3,18.3,0.4,27.4,0.8c-9.1,0.4-18.3,0.5-27.4,0.8c-9.1,0.2-18.3,0.3-27.4,0.5
	c-9.1,0.2-18.3,0.2-27.4,0.3l-27.4,0.1l-27.4-0.1c-9.1-0.1-18.3-0.1-27.4-0.3C54.6,82,36.4,81.6,18.1,81z"/>
</svg>
