<?xml version="1.0" encoding="utf-8"?>
<!-- Generator: Adobe Illustrator 22.0.1, SVG Export Plug-In . SVG Version: 6.00 Build 0)  -->
<svg version="1.1" id="Camada_1" xmlns="http://www.w3.org/2000/svg" xmlns:xlink="http://www.w3.org/1999/xlink" x="0px" y="0px"
	 viewBox="0 0 18 18" style="enable-background:new 0 0 18 18;" xml:space="preserve">
<style type="text/css">
	.st0{fill:#F23855;}
</style>
<g>
	<g>
		<path class="st0" d="M15.8,6.5c-0.7,0-1.3,0.2-1.8,0.7c0-0.8-0.7-1.4-1.4-1.4H9.4V5.1h1.8c0.8,0,1.4-0.6,1.4-1.4V2.3
			c0-0.8-0.6-1.4-1.4-1.4H6.9c-0.8,0-1.4,0.6-1.4,1.4v1.4c0,0.8,0.6,1.4,1.4,1.4h1.8v0.7H5.4C4.7,5.8,4,6.4,4,7.2
			C3.5,6.8,2.9,6.5,2.2,6.5C1.6,6.5,1.1,7,1.1,7.6s0.5,1.1,1.1,1.1c0.3,0,0.6,0.2,0.6,0.5l0.3,2c0.2,1,1.1,1.8,2.1,1.8h3.3l-0.2,2.2
			c-1.5,0.1-3,0.5-3,1.4c0,1,1.9,1.4,3.6,1.4s3.6-0.4,3.6-1.4c0-0.9-1.4-1.3-3-1.4L9.4,13h3.3c1.1,0,1.9-0.8,2.1-1.8l0.3-2
			c0-0.3,0.3-0.5,0.6-0.5c0.6,0,1.1-0.5,1.1-1.1C16.9,7,16.4,6.5,15.8,6.5z M6.9,4.4c-0.4,0-0.7-0.3-0.7-0.7V2.3
			c0-0.4,0.3-0.7,0.7-0.7h4.3c0.4,0,0.7,0.3,0.7,0.7v1.4c0,0.4-0.3,0.7-0.7,0.7C11.2,4.4,6.9,4.4,6.9,4.4z M4.7,7.3
			c0-0.4,0.3-0.7,0.7-0.7h7.2c0.4,0,0.7,0.3,0.7,0.7v0.9c-0.1,0.2-0.2,0.4-0.2,0.7l-0.3,2H5.3L5,8.9c0-0.2-0.1-0.5-0.2-0.7L4.7,7.3
			L4.7,7.3z M9.6,16.5c0.1-0.1,0.1-0.2,0.1-0.3v-0.3c1.5,0.1,2.2,0.5,2.2,0.7c0,0.2-1,0.7-2.9,0.7s-2.9-0.5-2.9-0.7
			c0-0.1,0.7-0.6,2.2-0.7v0.3c0,0.1,0,0.2,0.1,0.3c0.1,0.1,0.2,0.1,0.3,0.1h0.7C9.5,16.6,9.6,16.5,9.6,16.5z M15.8,8
			c-0.7,0-1.2,0.5-1.3,1.1l-0.3,2c-0.1,0.7-0.7,1.2-1.4,1.2H5.3c-0.7,0-1.3-0.5-1.4-1.2l-0.3-2C3.4,8.4,2.9,8,2.2,8
			C2,8,1.8,7.8,1.8,7.6c0-0.2,0.2-0.4,0.4-0.4c1,0,1.9,0.7,2,1.7l0.3,2c0.1,0.3,0.4,0.6,0.7,0.6h7.5c0.4,0,0.6-0.3,0.7-0.6l0.3-2
			c0.2-1,1-1.7,2-1.7c0.2,0,0.4,0.2,0.4,0.4C16.2,7.8,16,8,15.8,8z"/>
	</g>
</g>
</svg>
