<?xml version="1.0" encoding="utf-8"?>
<!-- Generator: Adobe Illustrator 22.0.1, SVG Export Plug-In . SVG Version: 6.00 Build 0)  -->
<svg version="1.1" id="Camada_1" xmlns="http://www.w3.org/2000/svg" xmlns:xlink="http://www.w3.org/1999/xlink" x="0px" y="0px"
	 viewBox="0 0 36 32" style="enable-background:new 0 0 36 32;" xml:space="preserve">
<style type="text/css">
	.st0{fill:#F23855;}
</style>
<g id="icomoon-ignore">
</g>
<path class="st0" d="M15,0L15,0c8.3,0,15,5.4,15,12.1s-6.7,12.1-15,12.1c-0.8,0-1.6-0.1-2.3-0.1C9.4,27.3,5.7,27.9,2,28v-0.8
	c2-1,3.6-2.8,3.6-4.8c0-0.3,0-0.6-0.1-0.8C2.2,19.4,0,15.9,0,12.1C0,5.4,6.7,0,15,0L15,0z M31.1,27.2c0,1.7,1.1,3.3,2.9,4.1V32
	c-3.2-0.1-6.2-0.6-9-3.3c-0.7,0.1-1.3,0.1-2,0.1c-3,0-5.7-0.8-7.9-2.2c4.5,0,8.8-1.5,12-4.1c1.6-1.3,2.9-2.9,3.8-4.6
	c1-1.8,1.4-3.8,1.4-5.8c0-0.3,0-0.7,0-1c2.3,1.9,3.7,4.4,3.7,7.2c0,3.3-1.9,6.2-4.8,8.1C31.1,26.7,31.1,27,31.1,27.2L31.1,27.2z"/>
</svg>
