<?xml version="1.0" encoding="iso-8859-1"?>
<!-- Generator: Adobe Illustrator 19.0.0, SVG Export Plug-In . SVG Version: 6.00 Build 0)  -->
<svg version="1.1" id="Capa_1" xmlns="http://www.w3.org/2000/svg" xmlns:xlink="http://www.w3.org/1999/xlink" x="0px" y="0px"
	 viewBox="0 0 512 512" style="enable-background:new 0 0 512 512;" xml:space="preserve">
<g>
	<g>
		<path d="M400,160H272v-32h-32v32H112c-26.496,0-48,21.504-48,48v48h384v-48C448,181.504,426.496,160,400,160z"/>
	</g>
</g>
<g>
	<g>
		<path d="M480,288H32c-17.664,0-32,14.336-32,32v32c0,35.36,28.64,64,64,64s64-28.64,64-64c0,35.36,28.64,64,64,64s64-28.64,64-64
			c0,35.36,28.64,64,64,64s64-28.64,64-64c0,35.36,28.64,64,64,64s64-28.64,64-64v-32C512,302.336,497.664,288,480,288z"/>
	</g>
</g>
<g>
	<g>
		<path d="M448,448c-24.576,0-47.008-9.28-64-24.512C367.008,438.72,344.576,448,320,448s-47.008-9.28-64-24.512
			C239.008,438.72,216.576,448,192,448s-47.008-9.28-64-24.512C111.008,438.72,88.576,448,64,448c-24.672,0-46.976-9.632-64-24.96
			V480c0,17.664,14.336,32,32,32h448c17.664,0,32-14.336,32-32v-56.96C494.976,438.4,472.672,448,448,448z"/>
	</g>
</g>
<g>
	<g>
		<path d="M256,0c0,0-32,46.336-32,64s14.336,32,32,32s32-14.336,32-32S256,0,256,0z"/>
	</g>
</g>
<g>
</g>
<g>
</g>
<g>
</g>
<g>
</g>
<g>
</g>
<g>
</g>
<g>
</g>
<g>
</g>
<g>
</g>
<g>
</g>
<g>
</g>
<g>
</g>
<g>
</g>
<g>
</g>
<g>
</g>
</svg>
