<svg height="512pt" viewBox="-64 0 512 512" width="512pt" xmlns="http://www.w3.org/2000/svg"><path d="m362.667969 469.332031h-21.335938v-79.335937c0-30.1875-12.882812-59.074219-35.304687-79.277344l-34.367188-30.933594c-6.828125-6.164062-10.582031-14.613281-10.582031-23.785156s3.753906-17.644531 10.582031-23.785156l34.367188-30.933594c22.421875-20.203125 35.304687-49.109375 35.304687-79.277344v-79.335937h21.335938c11.796875 0 21.332031-9.558594 21.332031-21.335938 0-11.773437-9.535156-21.332031-21.332031-21.332031h-341.335938c-11.796875 0-21.332031 9.558594-21.332031 21.332031 0 11.777344 9.535156 21.335938 21.332031 21.335938h21.335938v79.335937c0 30.1875 12.882812 59.074219 35.304687 79.277344l34.367188 30.933594c6.828125 6.164062 10.582031 14.613281 10.582031 23.785156s-3.753906 17.644531-10.582031 23.785156l-34.367188 30.933594c-22.421875 20.203125-35.304687 49.109375-35.304687 79.277344v79.335937h-21.335938c-11.796875 0-21.332031 9.558594-21.332031 21.335938 0 11.773437 9.535156 21.332031 21.332031 21.332031h341.335938c11.796875 0 21.332031-9.558594 21.332031-21.332031 0-11.777344-9.535156-21.335938-21.332031-21.335938zm0 0"/></svg>