<?xml version="1.0" encoding="utf-8"?>
<!-- Generator: Adobe Illustrator 23.0.2, SVG Export Plug-In . SVG Version: 6.00 Build 0)  -->
<svg version="1.1" id="Camada_1" xmlns="http://www.w3.org/2000/svg" xmlns:xlink="http://www.w3.org/1999/xlink" x="0px" y="0px"
	 viewBox="0 0 260 95" style="enable-background:new 0 0 260 95;" xml:space="preserve">
<style type="text/css">
	.st0{fill:#8C375F;}
	.st1{fill:#401230;}
</style>
<path class="st0" d="M100.52,33.41c0,0,6.14,21.72-18.17,34.23c0,0-12.95-16.86,8.03-25.26c0,0-26.76,8.04-19.83-12.98
	C78.33,5.8,100.52,33.41,100.52,33.41z"/>
<path class="st0" d="M101.21,27.93c0,0-0.56-24.25-15.91-14.69C85.3,13.23,96.88,10.75,101.21,27.93z"/>
<path class="st0" d="M103.72,27.93c0,0,0.56-24.25,15.91-14.69C119.63,13.23,108.05,10.75,103.72,27.93z"/>
<path class="st0" d="M104.41,33.41c0,0-6.14,21.72,18.17,34.23c0,0,12.95-16.86-8.03-25.26c0,0,26.76,8.04,19.83-12.98
	C126.6,5.8,104.41,33.41,104.41,33.41z"/>
<polygon class="st1" points="145.47,32.61 246.59,34.19 145.47,35.76 "/>
<polygon class="st1" points="13.41,34.19 59.8,32.61 59.8,35.76 "/>
<path class="st1" d="M24.83,66.32c0-0.94,0.63-1.59,1.52-1.59c0.88,0,1.49,0.66,1.49,1.59c0,0.91-0.58,1.59-1.52,1.59
	C25.43,67.91,24.83,67.23,24.83,66.32z"/>
<path class="st1" d="M35.72,50.6h2.2v8.22H38c0.46-0.66,0.91-1.26,1.34-1.82l5.21-6.4h2.73l-6.17,7.23l6.65,9.81h-2.6l-5.61-8.37
	l-1.62,1.87v6.5h-2.2V50.6z"/>
<path class="st1" d="M56.69,50.6v17.04h-2.2V50.6H56.69z"/>
<path class="st1" d="M64.98,66.32c0-0.94,0.63-1.59,1.52-1.59c0.88,0,1.49,0.66,1.49,1.59c0,0.91-0.58,1.59-1.52,1.59
	C65.59,67.91,64.98,67.23,64.98,66.32z"/>
<path class="st1" d="M137.24,50.82c0.96-0.2,2.48-0.35,4.02-0.35c2.2,0,3.62,0.38,4.68,1.24c0.88,0.66,1.42,1.67,1.42,3.01
	c0,1.64-1.09,3.08-2.88,3.74v0.05c1.62,0.4,3.51,1.74,3.51,4.27c0,1.47-0.58,2.58-1.44,3.41c-1.19,1.09-3.11,1.59-5.89,1.59
	c-1.52,0-2.68-0.1-3.41-0.2V50.82z M139.44,57.8h2c2.33,0,3.69-1.21,3.69-2.86c0-2-1.52-2.78-3.74-2.78c-1.01,0-1.59,0.08-1.95,0.15
	V57.8z M139.44,65.97c0.43,0.08,1.06,0.1,1.85,0.1c2.28,0,4.37-0.83,4.37-3.31c0-2.33-2-3.29-4.4-3.29h-1.82V65.97z"/>
<path class="st1" d="M164.82,59.65h-6.62v6.14h7.38v1.85H156V50.6h9.2v1.85h-7v5.39h6.62V59.65z"/>
<path class="st1" d="M173.5,50.6h2.2v15.2h7.28v1.85h-9.48V50.6z"/>
<path class="st1" d="M199.31,59.65h-6.62v6.14h7.38v1.85h-9.58V50.6h9.2v1.85h-7v5.39h6.62V59.65z"/>
<path class="st1" d="M206.82,66.35l9.46-13.83v-0.08h-8.65V50.6h11.5v1.34l-9.41,13.78v0.08h9.53v1.85h-12.44V66.35z"/>
<path class="st1" d="M229.78,62.28l-1.77,5.36h-2.28l5.79-17.04h2.65L240,67.64h-2.35l-1.82-5.36H229.78z M235.37,60.56l-1.67-4.91
	c-0.38-1.11-0.63-2.12-0.88-3.11h-0.05c-0.25,1.01-0.53,2.05-0.86,3.08l-1.67,4.93H235.37z"/>
<path class="st1" d="M18.12,81c18.25-0.61,36.51-1.01,54.76-1.22c9.13-0.14,18.25-0.18,27.38-0.26l27.38-0.09l27.38,0.08
	c9.13,0.09,18.25,0.12,27.38,0.26c9.13,0.11,18.25,0.27,27.38,0.46c9.13,0.26,18.25,0.41,27.38,0.77
	c-9.13,0.36-18.25,0.51-27.38,0.77c-9.13,0.18-18.25,0.35-27.38,0.46c-9.13,0.15-18.25,0.17-27.38,0.26l-27.38,0.08l-27.38-0.09
	c-9.13-0.09-18.25-0.12-27.38-0.26C54.63,82.01,36.37,81.61,18.12,81z"/>
</svg>
